<svg width="80" height="80" viewBox="0 0 80 80" fill="none" xmlns="http://www.w3.org/2000/svg">
<circle cx="40" cy="40" r="36.5714" fill="#181125"/>
<path fill-rule="evenodd" clip-rule="evenodd" d="M40 71.0714C57.1603 71.0714 71.0714 57.1603 71.0714 40C71.0714 22.8397 57.1603 8.92858 40 8.92858C22.8397 8.92858 8.92857 22.8397 8.92857 40C8.92857 57.1603 22.8397 71.0714 40 71.0714ZM40 73.1429C58.3043 73.1429 73.1429 58.3043 73.1429 40C73.1429 21.6957 58.3043 6.85715 40 6.85715C21.6957 6.85715 6.85714 21.6957 6.85714 40C6.85714 58.3043 21.6957 73.1429 40 73.1429Z" fill="#3E9ACB"/>
<path d="M54.4762 25.5238H25.5238C23.5333 25.5238 21.9229 27.1524 21.9229 29.1429L21.9048 50.8571C21.9048 52.8476 23.5333 54.4762 25.5238 54.4762H54.4762C56.4667 54.4762 58.0952 52.8476 58.0952 50.8571V29.1429C58.0952 27.1524 56.4667 25.5238 54.4762 25.5238ZM54.4762 32.7619L40 41.8095L25.5238 32.7619V29.1429L40 38.1905L54.4762 29.1429V32.7619Z" fill="#3E9ACB"/>
</svg>
