<svg width="80" height="80" viewBox="0 0 80 80" fill="none" xmlns="http://www.w3.org/2000/svg">
<circle cx="40" cy="40" r="36.5714" fill="#181125"/>
<path fill-rule="evenodd" clip-rule="evenodd" d="M40 71.0714C57.1603 71.0714 71.0714 57.1603 71.0714 40C71.0714 22.8397 57.1603 8.92858 40 8.92858C22.8397 8.92858 8.92857 22.8397 8.92857 40C8.92857 57.1603 22.8397 71.0714 40 71.0714ZM40 73.1429C58.3043 73.1429 73.1429 58.3043 73.1429 40C73.1429 21.6957 58.3043 6.85715 40 6.85715C21.6957 6.85715 6.85714 21.6957 6.85714 40C6.85714 58.3043 21.6957 73.1429 40 73.1429Z" fill="#3E9ACB"/>
<path d="M40 21.9048C30.006 21.9048 21.9048 30.006 21.9048 40C21.9048 49.0711 28.5873 56.5626 37.2948 57.8708V44.7952H32.818V40.038H37.2948V36.8731C37.2948 31.6328 39.848 29.3328 44.2035 29.3328C46.2899 29.3328 47.3919 29.4867 47.9149 29.5572V33.7083H44.9436C43.0943 33.7083 42.4483 35.4617 42.4483 37.4377V40.038H47.8678L47.1331 44.7952H42.4501V57.9088C51.2824 56.7128 58.0952 49.1598 58.0952 40C58.0952 30.006 49.994 21.9048 40 21.9048Z" fill="#3E9ACB"/>
</svg>
