<svg width="80" height="80" viewBox="0 0 80 80" fill="none" xmlns="http://www.w3.org/2000/svg">
<circle cx="40" cy="40" r="36.5714" fill="#181125"/>
<path fill-rule="evenodd" clip-rule="evenodd" d="M40 71.0714C57.1603 71.0714 71.0714 57.1603 71.0714 40C71.0714 22.8397 57.1603 8.92858 40 8.92858C22.8397 8.92858 8.92858 22.8397 8.92858 40C8.92858 57.1603 22.8397 71.0714 40 71.0714ZM40 73.1429C58.3043 73.1429 73.1429 58.3043 73.1429 40C73.1429 21.6957 58.3043 6.85715 40 6.85715C21.6957 6.85715 6.85715 21.6957 6.85715 40C6.85715 58.3043 21.6957 73.1429 40 73.1429Z" fill="#3E9ACB"/>
<path d="M30.2648 37.8105C32.8705 42.9314 37.0686 47.1114 42.1895 49.7352L46.1705 45.7543C46.6591 45.2657 47.3829 45.1028 48.0162 45.32C50.0429 45.9895 52.2324 46.3514 54.4762 46.3514C55.4714 46.3514 56.2857 47.1657 56.2857 48.1609V54.4762C56.2857 55.4714 55.4714 56.2857 54.4762 56.2857C37.4848 56.2857 23.7143 42.5152 23.7143 25.5238C23.7143 24.5285 24.5286 23.7143 25.5238 23.7143H31.8572C32.8524 23.7143 33.6667 24.5285 33.6667 25.5238C33.6667 27.7857 34.0286 29.9571 34.6981 31.9838C34.8972 32.6171 34.7524 33.3228 34.2457 33.8295L30.2648 37.8105Z" fill="#3E9ACB"/>
</svg>
