<svg width="80" height="80" viewBox="0 0 80 80" fill="none" xmlns="http://www.w3.org/2000/svg">
<circle cx="40" cy="40" r="36.5714" fill="#181125"/>
<path fill-rule="evenodd" clip-rule="evenodd" d="M40 71.0714C57.1603 71.0714 71.0714 57.1603 71.0714 40C71.0714 22.8397 57.1603 8.92858 40 8.92858C22.8397 8.92858 8.92857 22.8397 8.92857 40C8.92857 57.1603 22.8397 71.0714 40 71.0714ZM40 73.1429C58.3043 73.1429 73.1429 58.3043 73.1429 40C73.1429 21.6957 58.3043 6.85715 40 6.85715C21.6957 6.85715 6.85714 21.6957 6.85714 40C6.85714 58.3043 21.6957 73.1429 40 73.1429Z" fill="#3E9ACB"/>
<path d="M33.485 32.5781H38.9397V24.202C36.6627 24.9497 34.6149 28.146 33.485 32.5781Z" fill="#3E9ACB"/>
<path d="M33.485 47.4219C34.6149 51.854 36.6627 55.0502 38.9397 55.7979V47.4219H33.485Z" fill="#3E9ACB"/>
<path d="M57.035 34.6987H22.965C22.3795 34.6987 21.9048 35.1732 21.9048 35.7589V44.2411C21.9048 44.8266 22.3795 45.3013 22.965 45.3013H57.035C57.6205 45.3013 58.0952 44.8266 58.0952 44.2411V35.7589C58.0952 35.1732 57.6205 34.6987 57.035 34.6987ZM55.7922 38.3537L53.6717 42.5948C53.4915 42.954 53.125 43.1808 52.7232 43.1808C52.3214 43.1808 51.9549 42.954 51.7748 42.5948L50.6027 40.2506L49.4306 42.5948C49.0702 43.3133 47.894 43.3133 47.5337 42.5948L45.5022 38.5307C45.38 38.3808 45.3104 38.1923 45.2878 37.9911C45.2747 38.1137 45.2479 38.2369 45.1895 38.3537L43.069 42.5948C42.8888 42.954 42.5223 43.1808 42.1205 43.1808C41.7188 43.1808 41.3523 42.954 41.1721 42.5948L40 40.2506L38.8279 42.5948C38.4676 43.3133 37.2914 43.3133 36.931 42.5948L34.8105 38.3537C34.7543 38.2414 34.7301 38.1228 34.716 38.0049C34.6893 38.2333 34.6031 38.4415 34.4636 38.6001L32.4662 42.5948C32.2861 42.954 31.9196 43.1808 31.5179 43.1808C31.1161 43.1808 30.7496 42.954 30.5694 42.5948L29.3973 40.2506L28.2252 42.5948C28.045 42.954 27.6785 43.1808 27.2768 43.1808C26.875 43.1808 26.5085 42.954 26.3283 42.5948L24.2078 38.3537C23.9458 37.8298 24.1581 37.193 24.682 36.931C25.2049 36.6722 25.8407 36.8803 26.1047 37.4052L27.2768 39.7494L28.4489 37.4052C28.824 36.6525 29.9536 36.6208 30.3458 37.4052L31.5179 39.7494L32.6899 37.4052C32.8804 37.0242 33.2811 36.8171 33.7067 36.8212C34.2548 36.8572 34.6904 37.3092 34.7134 37.8468C34.7261 37.4707 34.9244 37.1111 35.2847 36.9309C35.8097 36.6721 36.4443 36.8802 36.7074 37.4052L37.8795 39.7494L39.0515 37.4052C39.4119 36.6867 40.5881 36.6867 40.9484 37.4052L42.1205 39.7494L43.2926 37.4052C43.5546 36.8803 44.1914 36.6722 44.7153 36.931C45.0725 37.1096 45.2694 37.4646 45.2853 37.8371C45.3059 37.3045 45.6846 36.8611 46.229 36.8254C46.666 36.8151 47.1195 37.0242 47.31 37.4052L48.4821 39.7494L49.6542 37.4052C50.0146 36.6867 51.1908 36.6867 51.5511 37.4052L52.7232 39.7494L53.8953 37.4052C54.1583 36.8803 54.793 36.6722 55.318 36.931C55.8419 37.193 56.0541 37.8298 55.7922 38.3537Z" fill="#3E9ACB"/>
<path d="M41.0603 47.4219V55.7979C43.3373 55.0502 45.3851 51.854 46.515 47.4219H41.0603Z" fill="#3E9ACB"/>
<path d="M41.0603 24.202V32.5781H46.515C45.3851 28.146 43.3373 24.9497 41.0603 24.202Z" fill="#3E9ACB"/>
<path d="M31.3072 47.4219H23.6397C26.5378 53.785 32.9552 58.0952 40 58.0952C36.1699 58.0952 32.8239 53.8772 31.3072 47.4219Z" fill="#3E9ACB"/>
<path d="M48.6928 47.4219C47.1761 53.8772 43.8301 58.0952 40 58.0952C47.0449 58.0952 53.4622 53.785 56.3603 47.4219H48.6928Z" fill="#3E9ACB"/>
<path d="M23.6397 32.5781H31.3072C32.8239 26.1228 36.1699 21.9048 40 21.9048C32.9552 21.9048 26.5378 26.215 23.6397 32.5781Z" fill="#3E9ACB"/>
<path d="M40 21.9048C43.8301 21.9048 47.1761 26.1228 48.6928 32.5781H56.3603C53.4622 26.215 47.0449 21.9048 40 21.9048Z" fill="#3E9ACB"/>
</svg>
